<svg xmlns="http://www.w3.org/2000/svg" xmlns:xlink="http://www.w3.org/1999/xlink" version="1.1" x="0px" y="0px" viewBox="0 0 32 40" enable-background="new 0 0 32 32" xml:space="preserve"><g>
<path fill="#E60000" d="M26.61,5.39C23.77,2.56,20.01,1,16,1S8.23,2.56,5.39,5.39C2.56,8.23,1,11.99,1,16s1.56,7.77,4.39,10.61   C8.23,29.44,11.99,31,16,31s7.77-1.56,10.61-4.39C29.44,23.77,31,20.01,31,16S29.44,8.23,26.61,5.39z M22.36,20.95   c0.2,0.2,0.3,0.45,0.3,0.71c0,0.25-0.1,0.51-0.3,0.7c-0.19,0.2-0.45,0.3-0.7,0.3c-0.2599,0-0.5099-0.1-0.71-0.3L16,17.41   l-4.95,4.95c-0.2,0.2-0.45,0.3-0.71,0.3c-0.25,0-0.51-0.1-0.7-0.3c-0.2-0.19-0.3-0.45-0.3-0.7c0-0.26,0.1-0.51,0.3-0.71L14.59,16   l-4.95-4.95c-0.2-0.2-0.3-0.45-0.3-0.71c0-0.25,0.1-0.51,0.3-0.7c0.39-0.39,1.02-0.39,1.41,0L16,14.59l4.95-4.95   c0.39-0.39,1.02-0.39,1.41,0c0.2,0.1899,0.3,0.45,0.3,0.7c0,0.26-0.1,0.51-0.3,0.71L17.41,16L22.36,20.95z"/></g></svg>